<svg id="Layer_1" data-name="Layer 1" xmlns="http://www.w3.org/2000/svg" viewBox="0 0 515 633"><defs><style>.cls-1{fill:#f88;}.cls-2{fill:#f25c5c;}.cls-3{fill:#5bd66f;}</style></defs><title>present</title><rect class="cls-1" x="31.15" y="290.22" width="452.69" height="342.78" rx="24.78"/><rect class="cls-2" x="0.42" y="177.75" width="514.17" height="112.47" rx="12.22"/><path class="cls-3" d="M257.5,134.45,221.17,49.2C210,22.42,187.64,11.71,187.64,11.71,170.87,1,142.93,1,142.93,1c-95,0-95,91.05-95,91.05-5.59,64.27,106.19,85.7,106.19,85.7C-13.56,183.1,14.39,349.14,14.39,349.14c0-10.72,16.76-37.5,16.76-37.5l16.77,42.85c22.36-155.32,178.84-166,178.84-166V633h61.48V188.46s156.48,10.71,178.84,166l16.77-42.85s16.76,26.78,16.76,37.5c0,0,27.95-166-139.72-171.39,0,0,111.78-21.43,106.19-85.7,0,0,0-91-95-91,0,0-27.94,0-44.71,10.71,0,0-22.36,10.71-33.53,37.49ZM137.34,145.61c-44.71-16.07-50.3-101.76,0-91.05,0,0,4.28.67,16.77,5.36A111.41,111.41,0,0,1,182.05,76c15.28,12,28.85,31.1,33.53,53.56C215.58,129.54,182.05,161.68,137.34,145.61Zm162.08-16.07C304.1,107.08,317.67,87.93,333,76a111.41,111.41,0,0,1,27.94-16.06c12.49-4.69,16.77-5.36,16.77-5.36,50.3-10.71,44.71,75,0,91.05S299.42,129.54,299.42,129.54Z"/></svg>