<svg id="Layer_1" data-name="Layer 1" xmlns="http://www.w3.org/2000/svg" viewBox="0 0 513 633"><defs><style>.cls-1{fill:#f88;}.cls-2{fill:#f25c5c;}.cls-3{fill:#5bd66f;}</style></defs><title>present</title><rect class="cls-1" x="26.94" y="290.22" width="452.69" height="342.78" rx="6.82"/><rect class="cls-2" x="-1" y="177.75" width="514.17" height="112.47" rx="6.59"/><path class="cls-3" d="M356.68,177.75s111.78-21.43,106.19-85.7c0,0,0-91-95-91,0,0-27.94,0-44.71,10.71,0,0-22.35,10.71-33.53,37.49,0,0-33.54,75-33.54,80.34l-2.79,4.91-2.79-4.91C250.5,124.19,217,49.2,217,49.2c-11.17-26.78-33.53-37.49-33.53-37.49C166.66,1,138.72,1,138.72,1c-95,0-95,91.05-95,91.05-5.59,64.27,106.19,85.7,106.19,85.7C-17.77,183.1,10.18,349.14,10.18,349.14c0-10.72,16.76-37.5,16.76-37.5l16.77,42.85c22.36-155.32,178.84-166,178.84-166V633H284V188.46s156.49,10.71,178.84,166l16.77-42.85s16.76,26.78,16.76,37.5C496.4,349.14,524.35,183.1,356.68,177.75ZM133.13,145.61c-44.71-16.07-50.3-101.76,0-91.05,0,0,4.28.67,16.77,5.36A111.41,111.41,0,0,1,177.84,76c15.28,12,28.85,31.1,33.53,53.56C211.37,129.54,177.84,161.68,133.13,145.61Zm162.08-16.07c4.68-22.46,18.25-41.61,33.53-53.56a111.41,111.41,0,0,1,27.94-16.06c12.49-4.69,16.77-5.36,16.77-5.36,50.3-10.71,44.71,75,0,91.05S295.21,129.54,295.21,129.54Z"/></svg>